<mxfile host="app.diagrams.net" modified="2023-09-29T16:16:35.537Z" agent="Mozilla/5.0 (Windows NT 10.0; Win64; x64) AppleWebKit/537.36 (KHTML, like Gecko) Chrome/116.0.5845.2271 YaBrowser/23.9.0.2271 Yowser/2.5 Safari/537.36" etag="mtG9p6o4tQdUE12F5Q1B" version="22.0.0" type="github">
  <diagram id="C5RBs43oDa-KdzZeNtuy" name="Page-1">
    <mxGraphModel dx="1109" dy="633" grid="1" gridSize="10" guides="1" tooltips="1" connect="1" arrows="1" fold="1" page="1" pageScale="1" pageWidth="827" pageHeight="1169" math="0" shadow="0">
      <root>
        <mxCell id="WIyWlLk6GJQsqaUBKTNV-0" />
        <mxCell id="WIyWlLk6GJQsqaUBKTNV-1" parent="WIyWlLk6GJQsqaUBKTNV-0" />
        <mxCell id="WIyWlLk6GJQsqaUBKTNV-2" value="" style="rounded=0;html=1;jettySize=auto;orthogonalLoop=1;fontSize=11;endArrow=block;endFill=0;endSize=8;strokeWidth=1;shadow=0;labelBackgroundColor=none;edgeStyle=orthogonalEdgeStyle;" parent="WIyWlLk6GJQsqaUBKTNV-1" source="WIyWlLk6GJQsqaUBKTNV-3" edge="1">
          <mxGeometry relative="1" as="geometry">
            <mxPoint x="290" y="250" as="targetPoint" />
          </mxGeometry>
        </mxCell>
        <mxCell id="WIyWlLk6GJQsqaUBKTNV-3" value="2 eded yazin" style="rounded=1;whiteSpace=wrap;html=1;fontSize=12;glass=0;strokeWidth=1;shadow=0;" parent="WIyWlLk6GJQsqaUBKTNV-1" vertex="1">
          <mxGeometry x="230" y="110" width="120" height="40" as="geometry" />
        </mxCell>
        <mxCell id="WIyWlLk6GJQsqaUBKTNV-4" value="False" style="rounded=0;html=1;jettySize=auto;orthogonalLoop=1;fontSize=11;endArrow=block;endFill=0;endSize=8;strokeWidth=1;shadow=0;labelBackgroundColor=none;edgeStyle=orthogonalEdgeStyle;" parent="WIyWlLk6GJQsqaUBKTNV-1" edge="1">
          <mxGeometry y="20" relative="1" as="geometry">
            <mxPoint as="offset" />
            <mxPoint x="290" y="330.0000000000001" as="sourcePoint" />
            <mxPoint x="290" y="370.0000000000001" as="targetPoint" />
          </mxGeometry>
        </mxCell>
        <mxCell id="WIyWlLk6GJQsqaUBKTNV-5" value="True" style="edgeStyle=orthogonalEdgeStyle;rounded=0;html=1;jettySize=auto;orthogonalLoop=1;fontSize=11;endArrow=block;endFill=0;endSize=8;strokeWidth=1;shadow=0;labelBackgroundColor=none;entryX=0;entryY=0.5;entryDx=0;entryDy=0;" parent="WIyWlLk6GJQsqaUBKTNV-1" target="mtaX2aEuTyM4Sn2qyUAA-7" edge="1">
          <mxGeometry y="10" relative="1" as="geometry">
            <mxPoint as="offset" />
            <mxPoint x="340" y="290.0000000000001" as="sourcePoint" />
            <mxPoint x="400" y="290.0000000000001" as="targetPoint" />
          </mxGeometry>
        </mxCell>
        <mxCell id="mtaX2aEuTyM4Sn2qyUAA-0" value="input 2 value" style="shape=parallelogram;perimeter=parallelogramPerimeter;whiteSpace=wrap;html=1;fixedSize=1;" vertex="1" parent="WIyWlLk6GJQsqaUBKTNV-1">
          <mxGeometry x="230" y="180" width="120" height="30" as="geometry" />
        </mxCell>
        <mxCell id="mtaX2aEuTyM4Sn2qyUAA-6" value="while (eded1&amp;gt;edede2)" style="shape=hexagon;perimeter=hexagonPerimeter2;whiteSpace=wrap;html=1;fixedSize=1;" vertex="1" parent="WIyWlLk6GJQsqaUBKTNV-1">
          <mxGeometry x="230" y="250" width="120" height="80" as="geometry" />
        </mxCell>
        <mxCell id="mtaX2aEuTyM4Sn2qyUAA-7" value="int sum = 0" style="shape=parallelogram;perimeter=parallelogramPerimeter;whiteSpace=wrap;html=1;fixedSize=1;" vertex="1" parent="WIyWlLk6GJQsqaUBKTNV-1">
          <mxGeometry x="435" y="275" width="190" height="30" as="geometry" />
        </mxCell>
        <mxCell id="mtaX2aEuTyM4Sn2qyUAA-8" value="1ci eded 2ciden kicin olmaldir.&lt;br&gt;yeniden yazin" style="rounded=1;whiteSpace=wrap;html=1;fontSize=12;glass=0;strokeWidth=1;shadow=0;" vertex="1" parent="WIyWlLk6GJQsqaUBKTNV-1">
          <mxGeometry x="170" y="370" width="240" height="40" as="geometry" />
        </mxCell>
        <mxCell id="mtaX2aEuTyM4Sn2qyUAA-10" value="input&amp;nbsp; eded1" style="shape=parallelogram;perimeter=parallelogramPerimeter;whiteSpace=wrap;html=1;fixedSize=1;" vertex="1" parent="WIyWlLk6GJQsqaUBKTNV-1">
          <mxGeometry x="230" y="450" width="120" height="30" as="geometry" />
        </mxCell>
        <mxCell id="mtaX2aEuTyM4Sn2qyUAA-12" value="" style="rounded=0;html=1;jettySize=auto;orthogonalLoop=1;fontSize=11;endArrow=block;endFill=0;endSize=8;strokeWidth=1;shadow=0;labelBackgroundColor=none;edgeStyle=orthogonalEdgeStyle;" edge="1" parent="WIyWlLk6GJQsqaUBKTNV-1">
          <mxGeometry y="20" relative="1" as="geometry">
            <mxPoint as="offset" />
            <mxPoint x="289.66" y="410.0000000000001" as="sourcePoint" />
            <mxPoint x="289.66" y="450.0000000000001" as="targetPoint" />
          </mxGeometry>
        </mxCell>
        <mxCell id="mtaX2aEuTyM4Sn2qyUAA-14" value="" style="rounded=0;html=1;jettySize=auto;orthogonalLoop=1;fontSize=11;endArrow=block;endFill=0;endSize=8;strokeWidth=1;shadow=0;labelBackgroundColor=none;edgeStyle=orthogonalEdgeStyle;" edge="1" parent="WIyWlLk6GJQsqaUBKTNV-1">
          <mxGeometry y="20" relative="1" as="geometry">
            <mxPoint as="offset" />
            <mxPoint x="289.66" y="480.0000000000001" as="sourcePoint" />
            <mxPoint x="289.66" y="520.0000000000001" as="targetPoint" />
          </mxGeometry>
        </mxCell>
        <mxCell id="mtaX2aEuTyM4Sn2qyUAA-15" value="input&amp;nbsp; eded2" style="shape=parallelogram;perimeter=parallelogramPerimeter;whiteSpace=wrap;html=1;fixedSize=1;" vertex="1" parent="WIyWlLk6GJQsqaUBKTNV-1">
          <mxGeometry x="230" y="520" width="120" height="30" as="geometry" />
        </mxCell>
        <mxCell id="mtaX2aEuTyM4Sn2qyUAA-19" value="" style="edgeStyle=elbowEdgeStyle;elbow=horizontal;endArrow=classic;html=1;curved=0;rounded=0;endSize=8;startSize=8;exitX=0;exitY=0.5;exitDx=0;exitDy=0;" edge="1" parent="WIyWlLk6GJQsqaUBKTNV-1" source="mtaX2aEuTyM4Sn2qyUAA-15" target="mtaX2aEuTyM4Sn2qyUAA-0">
          <mxGeometry width="50" height="50" relative="1" as="geometry">
            <mxPoint x="70" y="470" as="sourcePoint" />
            <mxPoint x="50" y="210" as="targetPoint" />
            <Array as="points">
              <mxPoint x="110" y="360" />
            </Array>
          </mxGeometry>
        </mxCell>
        <mxCell id="mtaX2aEuTyM4Sn2qyUAA-21" value="while (eded1&amp;lt;edede2)" style="shape=hexagon;perimeter=hexagonPerimeter2;whiteSpace=wrap;html=1;fixedSize=1;" vertex="1" parent="WIyWlLk6GJQsqaUBKTNV-1">
          <mxGeometry x="470" y="340" width="120" height="80" as="geometry" />
        </mxCell>
        <mxCell id="mtaX2aEuTyM4Sn2qyUAA-23" value="" style="endArrow=classic;html=1;rounded=0;exitX=0.5;exitY=1;exitDx=0;exitDy=0;" edge="1" parent="WIyWlLk6GJQsqaUBKTNV-1" source="mtaX2aEuTyM4Sn2qyUAA-7" target="mtaX2aEuTyM4Sn2qyUAA-21">
          <mxGeometry width="50" height="50" relative="1" as="geometry">
            <mxPoint x="450" y="360" as="sourcePoint" />
            <mxPoint x="500" y="310" as="targetPoint" />
          </mxGeometry>
        </mxCell>
        <mxCell id="mtaX2aEuTyM4Sn2qyUAA-24" value="" style="endArrow=classic;html=1;rounded=0;exitX=0.5;exitY=1;exitDx=0;exitDy=0;" edge="1" parent="WIyWlLk6GJQsqaUBKTNV-1" source="mtaX2aEuTyM4Sn2qyUAA-21">
          <mxGeometry width="50" height="50" relative="1" as="geometry">
            <mxPoint x="480" y="510" as="sourcePoint" />
            <mxPoint x="530" y="450" as="targetPoint" />
          </mxGeometry>
        </mxCell>
        <mxCell id="mtaX2aEuTyM4Sn2qyUAA-26" value="increase sum&lt;br&gt;sum += eded1" style="rounded=0;whiteSpace=wrap;html=1;" vertex="1" parent="WIyWlLk6GJQsqaUBKTNV-1">
          <mxGeometry x="470" y="450" width="120" height="40" as="geometry" />
        </mxCell>
        <mxCell id="mtaX2aEuTyM4Sn2qyUAA-28" value="" style="endArrow=classic;html=1;rounded=0;exitX=0.5;exitY=1;exitDx=0;exitDy=0;" edge="1" parent="WIyWlLk6GJQsqaUBKTNV-1">
          <mxGeometry width="50" height="50" relative="1" as="geometry">
            <mxPoint x="530" y="490" as="sourcePoint" />
            <mxPoint x="530" y="520" as="targetPoint" />
          </mxGeometry>
        </mxCell>
        <mxCell id="mtaX2aEuTyM4Sn2qyUAA-29" value="sum ++ 1" style="rounded=0;whiteSpace=wrap;html=1;" vertex="1" parent="WIyWlLk6GJQsqaUBKTNV-1">
          <mxGeometry x="470" y="520" width="120" height="30" as="geometry" />
        </mxCell>
        <mxCell id="mtaX2aEuTyM4Sn2qyUAA-30" value="" style="edgeStyle=elbowEdgeStyle;elbow=horizontal;endArrow=classic;html=1;curved=0;rounded=0;endSize=8;startSize=8;entryX=0;entryY=0.5;entryDx=0;entryDy=0;" edge="1" parent="WIyWlLk6GJQsqaUBKTNV-1" target="mtaX2aEuTyM4Sn2qyUAA-21">
          <mxGeometry width="50" height="50" relative="1" as="geometry">
            <mxPoint x="470" y="540" as="sourcePoint" />
            <mxPoint x="470" y="370" as="targetPoint" />
            <Array as="points">
              <mxPoint x="430" y="450" />
            </Array>
          </mxGeometry>
        </mxCell>
        <mxCell id="mtaX2aEuTyM4Sn2qyUAA-31" value="" style="edgeStyle=orthogonalEdgeStyle;rounded=0;html=1;jettySize=auto;orthogonalLoop=1;fontSize=11;endArrow=block;endFill=0;endSize=8;strokeWidth=1;shadow=0;labelBackgroundColor=none;entryX=0;entryY=0.5;entryDx=0;entryDy=0;" edge="1" parent="WIyWlLk6GJQsqaUBKTNV-1">
          <mxGeometry y="10" relative="1" as="geometry">
            <mxPoint as="offset" />
            <mxPoint x="590" y="380" as="sourcePoint" />
            <mxPoint x="665" y="379.65999999999997" as="targetPoint" />
            <Array as="points">
              <mxPoint x="610" y="380" />
              <mxPoint x="610" y="380" />
            </Array>
          </mxGeometry>
        </mxCell>
        <mxCell id="mtaX2aEuTyM4Sn2qyUAA-32" value="Totale = sum" style="rounded=0;whiteSpace=wrap;html=1;" vertex="1" parent="WIyWlLk6GJQsqaUBKTNV-1">
          <mxGeometry x="670" y="360" width="100" height="40" as="geometry" />
        </mxCell>
        <mxCell id="mtaX2aEuTyM4Sn2qyUAA-33" value="" style="endArrow=classic;html=1;rounded=0;exitX=0.5;exitY=1;exitDx=0;exitDy=0;" edge="1" parent="WIyWlLk6GJQsqaUBKTNV-1">
          <mxGeometry width="50" height="50" relative="1" as="geometry">
            <mxPoint x="719.66" y="400" as="sourcePoint" />
            <mxPoint x="719.66" y="435" as="targetPoint" />
          </mxGeometry>
        </mxCell>
        <mxCell id="mtaX2aEuTyM4Sn2qyUAA-34" value="End" style="ellipse;whiteSpace=wrap;html=1;" vertex="1" parent="WIyWlLk6GJQsqaUBKTNV-1">
          <mxGeometry x="670" y="440" width="100" height="50" as="geometry" />
        </mxCell>
        <mxCell id="mtaX2aEuTyM4Sn2qyUAA-35" value="Start" style="ellipse;whiteSpace=wrap;html=1;" vertex="1" parent="WIyWlLk6GJQsqaUBKTNV-1">
          <mxGeometry x="240" y="20" width="100" height="50" as="geometry" />
        </mxCell>
        <mxCell id="mtaX2aEuTyM4Sn2qyUAA-36" value="" style="endArrow=classic;html=1;rounded=0;exitX=0.492;exitY=1.029;exitDx=0;exitDy=0;exitPerimeter=0;" edge="1" parent="WIyWlLk6GJQsqaUBKTNV-1" source="mtaX2aEuTyM4Sn2qyUAA-35">
          <mxGeometry width="50" height="50" relative="1" as="geometry">
            <mxPoint x="289.65999999999997" y="75" as="sourcePoint" />
            <mxPoint x="289.65999999999997" y="110" as="targetPoint" />
          </mxGeometry>
        </mxCell>
      </root>
    </mxGraphModel>
  </diagram>
</mxfile>
